<?xml version="1.0" standalone="no"?>
<!DOCTYPE svg PUBLIC "-//W3C//DTD SVG 20010904//EN"
 "http://www.w3.org/TR/2001/REC-SVG-20010904/DTD/svg10.dtd">
<svg version="1.0" xmlns="http://www.w3.org/2000/svg"
 width="3000.000000pt" height="3000.000000pt" viewBox="0 0 3000.000000 3000.000000"
 preserveAspectRatio="xMidYMid meet">

<g transform="translate(0.000000,3000.000000) scale(0.100000,-0.100000)"
fill="#000000" stroke="none">
<path d="M8545 23984 c-11 -2 -148 -8 -304 -14 -352 -14 -503 -33 -910 -116
-204 -42 -464 -127 -575 -189 -23 -12 -84 -46 -136 -75 -269 -148 -502 -353
-690 -605 -52 -71 -163 -293 -199 -400 -92 -275 -119 -400 -162 -735 -15 -126
-19 -217 -19 -500 0 -376 -1 -380 -64 -545 -59 -152 -92 -205 -256 -410 -218
-273 -251 -324 -290 -439 -29 -89 -24 -168 16 -250 33 -68 122 -163 179 -191
62 -30 205 -115 205 -121 0 -3 -11 -20 -24 -37 -13 -18 -37 -59 -52 -92 -26
-54 -29 -71 -29 -160 0 -93 2 -105 32 -165 18 -36 51 -84 74 -108 40 -41 41
-43 23 -57 -10 -8 -22 -15 -26 -15 -20 -1 -58 -77 -58 -118 0 -59 60 -180 125
-251 102 -112 111 -135 79 -196 -32 -61 -74 -222 -74 -287 0 -76 31 -212 65
-283 44 -93 99 -154 177 -196 l63 -34 280 2 c154 1 395 9 535 18 326 21 445
10 528 -48 70 -49 220 -276 275 -417 41 -105 97 -282 117 -370 11 -52 25 -115
31 -139 5 -24 17 -82 25 -130 9 -47 22 -124 31 -171 10 -58 17 -178 20 -377 5
-256 3 -302 -12 -365 -26 -106 -43 -146 -91 -208 -112 -145 -199 -207 -439
-310 -66 -29 -149 -65 -184 -82 -177 -82 -710 -261 -996 -333 -356 -90 -504
-166 -717 -367 -77 -73 -81 -81 -79 -151 l1 -38 3604 1 c2808 1 3619 -1 3668
-11 35 -7 90 -26 123 -43 54 -28 69 -31 150 -30 83 0 95 3 160 36 79 41 115
71 115 96 0 47 -22 312 -35 422 -27 234 -38 415 -39 630 0 270 23 439 90 654
46 149 110 300 184 441 175 329 249 619 250 973 0 275 -23 364 -186 697 -57
118 -78 156 -149 280 -12 22 -33 58 -45 80 -12 22 -53 92 -90 155 -246 419
-503 926 -596 1175 -35 94 -70 181 -78 195 -7 14 -23 52 -34 85 -12 33 -30 85
-42 115 -42 111 -148 437 -163 500 -9 36 -23 103 -32 150 -9 47 -20 103 -25
125 -13 63 -47 371 -65 585 -9 107 -25 247 -36 310 -11 63 -30 183 -44 265
-65 392 -84 474 -165 695 -78 211 -194 422 -308 557 -58 70 -292 281 -370 334
-182 124 -480 290 -652 364 -207 90 -347 122 -775 180 -66 9 -160 23 -210 30
-140 22 -620 42 -700 29z m-1866 -1137 c14 -6 50 -53 80 -103 124 -203 442
-620 656 -860 50 -55 136 -152 192 -215 110 -123 201 -214 303 -299 247 -209
425 -411 513 -586 44 -88 112 -322 202 -699 25 -104 58 -239 74 -300 50 -185
64 -342 59 -645 -4 -263 -5 -266 -33 -335 -99 -247 -371 -485 -772 -676 -172
-81 -465 -206 -628 -266 -391 -144 -540 -187 -710 -202 -232 -20 -555 -31
-670 -22 -166 13 -208 39 -241 145 -36 119 -32 146 45 346 23 58 41 113 41
123 0 31 -37 152 -60 197 -13 25 -49 72 -81 106 -33 33 -59 64 -59 67 0 4 24
7 53 7 74 1 131 29 156 79 27 51 27 101 1 134 -24 30 -133 87 -167 87 -58 0
-157 73 -173 128 -18 67 1 104 84 166 95 71 134 112 147 159 26 96 -75 232
-206 275 -83 28 -88 30 -185 74 -142 66 -175 118 -127 200 14 24 83 103 153
177 124 129 248 284 310 386 30 50 108 223 126 280 49 160 50 165 58 570 9
446 26 615 85 870 23 101 123 394 146 432 26 41 79 83 154 120 80 40 122 54
235 74 115 20 207 23 239 6z m2404 -4377 c50 -170 91 -290 179 -525 50 -132
114 -313 144 -402 29 -89 58 -172 63 -185 6 -12 25 -63 45 -113 19 -49 53
-130 75 -178 23 -49 41 -90 41 -92 0 -3 18 -42 41 -87 47 -98 142 -318 157
-368 30 -97 45 -222 46 -370 0 -141 -3 -166 -31 -275 -18 -66 -46 -187 -63
-270 -17 -82 -37 -179 -45 -215 -93 -424 -123 -752 -108 -1155 5 -137 8 -253
6 -257 -6 -12 -4253 -10 -4253 2 0 16 80 70 159 107 94 44 217 84 351 113 282
60 884 264 1163 394 43 20 80 36 83 36 17 0 280 140 319 170 156 121 283 285
324 420 50 166 56 221 54 495 -3 367 -34 599 -129 980 -85 341 -222 625 -381
794 -29 30 -51 57 -48 59 2 2 79 32 172 67 238 90 478 192 595 254 151 79 235
125 293 159 75 44 222 171 380 327 139 137 207 239 251 375 l27 82 32 -128
c18 -71 44 -167 58 -214z m1570 120 c27 -47 63 -110 79 -140 17 -30 58 -102
93 -160 73 -124 97 -167 166 -298 29 -53 55 -101 60 -107 20 -27 94 -225 149
-401 20 -61 63 -299 85 -469 20 -145 19 -411 -1 -555 -25 -186 -81 -398 -168
-635 -122 -334 -186 -517 -201 -565 -7 -25 -21 -70 -30 -100 -41 -136 -67
-269 -96 -500 -20 -156 -20 -179 -8 -411 7 -136 9 -254 6 -263 -6 -15 -30 -16
-229 -14 l-223 3 -8 55 c-4 30 -9 199 -10 375 -2 263 1 343 16 450 36 256 100
504 217 835 251 710 269 795 250 1158 -9 148 -18 214 -60 432 -26 136 -117
351 -244 574 -31 54 -56 100 -56 102 0 1 -42 74 -93 161 -93 157 -200 344
-272 477 -30 55 -35 70 -24 77 8 5 135 8 283 6 l269 -2 50 -85z m1025 76 c233
-11 233 -11 248 -36 7 -14 48 -83 89 -154 41 -70 75 -129 75 -131 0 -2 19 -36
43 -77 233 -394 322 -619 381 -967 64 -374 67 -661 10 -936 -35 -165 -122
-444 -209 -665 -7 -19 -28 -75 -45 -125 -18 -49 -38 -106 -45 -125 -22 -56
-102 -320 -114 -375 -17 -78 -49 -270 -62 -380 -12 -97 -8 -366 8 -622 l6
-103 -226 0 c-124 0 -228 4 -231 9 -12 20 -28 312 -29 531 -1 309 25 518 104
819 17 63 32 118 35 123 3 4 16 43 29 85 13 43 46 143 75 223 160 452 222 658
241 815 27 213 -16 659 -85 875 -25 80 -167 388 -195 425 -4 5 -22 35 -38 65
-16 30 -83 147 -148 260 -65 113 -132 230 -148 260 -16 30 -33 60 -37 65 -4 6
-24 40 -43 77 -25 45 -32 68 -24 72 17 7 73 5 335 -8z"/>
<path d="M6450 21393 c-67 -7 -342 -63 -361 -74 -44 -23 -51 -94 -13 -138 30
-36 69 -40 169 -17 33 7 124 19 201 26 190 18 356 2 459 -42 174 -75 270 -108
297 -102 31 6 75 53 84 89 3 13 -2 39 -11 60 -15 30 -32 43 -109 79 -114 55
-260 103 -351 116 -66 9 -290 11 -365 3z"/>
<path d="M6785 20704 c-11 -3 -45 -11 -75 -18 -62 -16 -268 -39 -505 -57 -91
-7 -172 -18 -187 -26 -85 -42 -73 -191 18 -229 61 -25 246 -5 618 67 109 21
215 47 234 57 68 35 77 141 16 186 -26 19 -83 28 -119 20z"/>
<path d="M21105 23880 c-88 -4 -169 -10 -180 -13 -11 -3 -67 -11 -125 -17
-161 -17 -272 -38 -341 -65 -35 -14 -67 -25 -71 -25 -12 0 -222 -103 -298
-146 -36 -20 -103 -62 -150 -93 -47 -30 -93 -60 -102 -66 -59 -35 -201 -141
-272 -204 -93 -81 -332 -382 -429 -539 -128 -207 -140 -242 -83 -242 12 0 66
-9 121 -20 55 -11 201 -40 325 -65 124 -24 266 -54 315 -65 50 -11 146 -32
215 -46 69 -13 170 -36 225 -49 55 -13 163 -38 240 -55 164 -36 392 -90 750
-175 55 -13 131 -29 169 -35 38 -6 76 -15 85 -19 34 -18 264 -21 1592 -22 757
-1 1381 -4 1386 -8 5 -3 17 -35 27 -71 22 -84 90 -285 126 -375 31 -78 66
-167 103 -265 14 -36 63 -146 110 -245 96 -205 162 -374 150 -386 -5 -5 -45
-18 -88 -29 -79 -20 -195 -61 -289 -103 -112 -50 -217 -205 -262 -387 -39
-159 8 -414 110 -607 20 -37 52 -102 71 -143 19 -41 64 -131 99 -200 69 -133
125 -259 158 -352 16 -48 18 -64 8 -92 -15 -48 -51 -83 -96 -95 -47 -13 -363
-14 -568 -1 -134 8 -152 11 -187 34 -28 19 -40 35 -45 61 -13 70 -96 116 -171
95 -93 -25 -140 -110 -168 -302 -12 -81 -14 -117 -6 -145 14 -48 14 -73 1 -73
-12 0 -106 -63 -214 -144 -184 -137 -289 -186 -526 -240 -63 -15 -131 -31
-150 -37 -19 -5 -96 -13 -171 -16 -138 -6 -189 0 -384 43 -291 66 -382 118
-686 393 -117 106 -135 127 -215 247 -127 192 -186 343 -228 582 -72 415 -92
594 -102 932 -5 166 -3 217 15 340 11 80 27 164 35 186 25 73 84 179 161 295
83 123 147 196 237 265 50 39 60 52 72 97 46 174 61 590 23 641 -12 16 -708
193 -1327 337 -47 11 -112 26 -145 34 -54 13 -417 86 -520 105 -22 4 -110 22
-195 40 -234 49 -234 49 -252 50 -31 0 -97 -70 -183 -194 -105 -153 -132 -200
-178 -309 -21 -48 -51 -115 -66 -150 -67 -144 -103 -287 -128 -497 -13 -118
-17 -246 -17 -690 -1 -600 -3 -574 66 -790 68 -213 122 -380 148 -460 16 -47
43 -132 60 -190 35 -117 48 -153 99 -270 6 -14 19 -47 30 -75 32 -83 106 -206
216 -360 36 -49 85 -121 111 -160 26 -38 60 -88 76 -110 39 -54 85 -149 103
-216 49 -175 77 -769 56 -1184 -19 -378 -31 -479 -83 -685 -22 -84 -150 -355
-211 -445 -65 -97 -560 -595 -737 -742 -124 -104 -401 -314 -480 -365 -142
-91 -365 -230 -393 -245 -18 -9 -79 -62 -137 -117 -58 -56 -129 -121 -157
-145 -56 -45 -65 -61 -34 -61 10 0 24 -6 30 -14 6 -7 44 -28 83 -47 66 -31 81
-34 163 -34 81 1 96 4 140 29 103 59 -139 55 3782 56 l3612 0 12 43 c17 62 -1
123 -50 167 -51 47 -168 83 -421 130 -92 18 -378 6 -508 -21 -63 -13 -76 -5
-92 50 -20 70 -50 215 -50 242 0 37 29 85 60 99 15 7 144 15 340 20 454 13
613 37 911 138 107 36 208 105 244 166 60 102 102 232 139 431 51 269 73 818
41 1020 -9 55 -20 125 -25 155 -8 54 -17 103 -60 338 -11 62 -18 117 -16 121
3 4 31 13 63 20 88 20 158 57 203 108 130 148 138 273 24 355 -186 135 -284
232 -414 411 -93 127 -104 149 -156 306 -42 127 -41 102 -26 671 11 411 28
668 51 770 13 56 54 160 79 203 21 34 57 122 90 222 17 50 22 96 26 270 6 218
0 302 -35 475 -74 363 -198 757 -292 923 -57 100 -107 198 -107 210 0 7 23 31
52 52 125 96 161 154 179 290 10 77 9 104 -5 189 -15 85 -26 117 -81 223 -76
148 -129 222 -257 363 -143 158 -205 208 -431 344 -182 109 -221 129 -347 179
-175 68 -279 102 -455 147 -319 82 -523 111 -900 129 -266 13 -1428 21 -1640
11z m-1320 -3954 c148 -33 315 -116 387 -193 40 -42 97 -141 114 -198 28 -96
64 -290 89 -492 31 -239 35 -379 25 -903 -12 -594 -4 -854 34 -1175 44 -370
50 -399 101 -515 47 -107 58 -123 215 -299 183 -207 265 -291 370 -376 47 -38
108 -90 135 -116 255 -237 409 -350 695 -506 190 -104 362 -195 396 -209 46
-19 181 -95 243 -137 24 -17 76 -46 115 -65 120 -58 255 -142 277 -174 29 -40
19 -57 -106 -173 -214 -198 -244 -221 -259 -196 -7 10 -79 33 -366 116 -281
80 -297 85 -395 128 -234 101 -496 255 -845 495 -233 161 -423 326 -769 667
-267 263 -297 298 -396 460 -20 32 -54 131 -80 229 -26 99 -25 127 5 531 27
363 24 607 -10 804 -11 63 -7 75 22 60 23 -12 146 -43 216 -54 l42 -7 -1 89
c-1 48 -4 115 -8 148 -6 59 -6 60 -46 73 -125 40 -283 138 -374 232 -212 216
-533 639 -619 815 -58 119 -67 158 -65 305 1 202 36 347 105 449 81 116 170
167 338 190 41 6 86 13 100 15 45 8 254 -4 315 -18z m5015 -1956 c112 -29 162
-65 327 -236 87 -91 209 -209 271 -265 61 -55 112 -106 112 -113 0 -31 -304
-27 -386 4 -38 15 -100 60 -189 140 -51 45 -111 86 -164 113 -82 41 -88 42
-196 45 -192 6 -261 -15 -635 -196 -158 -76 -295 -138 -340 -152 -14 -5 -50
-18 -80 -30 -87 -33 -184 -50 -289 -50 -117 0 -276 22 -357 50 -32 12 -81 28
-109 38 l-50 16 110 7 c128 7 158 15 354 84 168 60 287 151 374 285 20 30 52
70 73 88 88 79 272 157 414 177 119 17 691 13 760 -5z m-161 -663 c25 -13 103
-66 174 -118 70 -52 159 -116 198 -144 92 -65 129 -114 129 -171 0 -84 -39
-121 -190 -179 -189 -73 -260 -94 -371 -110 -136 -19 -465 -34 -789 -35 -227
-1 -238 0 -315 25 -44 14 -121 46 -172 70 -109 53 -138 86 -138 157 0 87 61
137 177 145 142 9 359 48 470 84 32 10 149 63 260 118 168 81 302 140 398 174
40 14 124 6 169 -16z m-4871 -1834 c173 -202 296 -328 412 -421 347 -279 464
-363 681 -487 72 -41 132 -75 135 -75 2 0 41 -22 86 -48 293 -171 614 -340
786 -412 56 -24 102 -47 102 -52 0 -4 -435 -8 -966 -8 l-967 0 -35 38 c-92 97
-317 396 -447 594 -227 344 -288 444 -306 495 l-19 55 85 103 c98 119 200 270
241 355 15 33 31 60 35 60 4 0 84 -89 177 -197z m-797 -636 c9 -12 31 -62 49
-112 62 -166 167 -352 269 -475 25 -30 48 -57 51 -60 33 -30 150 -202 144
-212 -7 -10 -1543 -9 -1694 1 -63 5 -128 14 -145 20 l-30 12 115 61 c63 33
196 102 295 152 373 192 421 221 640 395 44 35 115 95 157 133 94 84 121 107
128 107 3 0 12 -10 21 -22z m4549 -455 c9 -11 27 -60 40 -109 13 -48 41 -131
62 -183 21 -52 38 -100 38 -107 0 -10 -73 -13 -365 -13 -201 0 -365 4 -365 8
0 5 48 53 106 108 59 54 138 131 178 170 78 78 153 139 182 147 39 11 108 -1
124 -21z"/>
<path d="M19443 19664 c-35 -8 -63 -20 -63 -25 0 -5 6 -42 14 -82 8 -40 18
-97 22 -127 11 -91 17 -100 67 -100 47 0 110 -34 160 -87 l28 -30 -31 -64
c-37 -80 -54 -166 -45 -233 9 -66 48 -174 87 -239 66 -112 171 -267 181 -267
12 0 217 208 217 220 0 5 -22 35 -49 67 -26 32 -62 84 -80 115 -47 86 -43 110
30 163 71 51 93 100 93 205 0 95 -11 125 -90 236 -52 74 -176 170 -283 221
-90 42 -165 50 -258 27z"/>
<path d="M22650 20544 c-71 -8 -157 -27 -225 -49 -38 -12 -86 -26 -105 -30
-69 -14 -236 -68 -280 -90 -62 -32 -126 -80 -146 -110 -14 -21 -14 -32 -4 -74
17 -72 25 -76 112 -53 130 36 238 51 483 68 380 26 636 8 1009 -72 143 -31
209 -32 230 -2 22 31 20 114 -3 165 -28 61 -89 97 -266 154 -131 43 -204 58
-350 74 -141 15 -399 26 -455 19z"/>
<path d="M22354 19854 c-27 -14 -62 -33 -79 -42 -36 -18 -51 -34 -93 -91 -37
-51 -42 -100 -13 -147 18 -30 21 -31 117 -37 55 -4 178 -7 274 -7 96 0 294 -5
440 -10 347 -14 421 -2 492 79 28 32 30 38 26 102 -4 75 -16 94 -81 136 -36
23 -45 24 -355 33 -174 5 -398 10 -498 10 -175 0 -182 -1 -230 -26z"/>
<path d="M2260 14884 c-199 -29 -363 -89 -523 -193 -291 -190 -494 -484 -561
-813 -23 -114 -37 -258 -30 -330 16 -182 62 -365 121 -482 28 -55 25 -76 -12
-76 -38 0 -97 -33 -137 -78 -73 -81 -73 -207 -1 -291 38 -46 99 -81 136 -81
14 0 30 -6 36 -14 8 -10 10 -710 9 -2652 l-3 -2639 -59 -19 c-160 -50 -221
-218 -130 -356 32 -48 73 -73 145 -90 46 -10 65 -23 124 -80 92 -89 169 -143
274 -195 150 -74 290 -118 464 -146 61 -10 77 -16 77 -30 0 -83 91 -207 166
-228 49 -14 128 -14 175 -1 77 21 150 113 165 208 l6 40 77 11 c96 15 194 42
294 81 200 77 303 141 452 280 43 40 59 48 114 58 82 15 133 49 171 115 80
140 -6 311 -173 342 l-37 7 0 2649 0 2649 25 5 c14 3 37 7 51 10 49 11 103 54
134 107 83 146 -10 323 -182 343 -32 4 -58 8 -58 9 0 2 17 43 39 92 142 329
145 672 7 1011 -65 158 -166 304 -304 434 -124 119 -212 176 -387 255 -89 39
-197 68 -334 89 -124 18 -202 18 -331 -1z m295 -94 c280 -31 521 -147 713
-343 114 -116 170 -195 234 -327 89 -186 133 -442 109 -637 -17 -136 -64 -291
-119 -398 l-48 -90 -1011 -3 -1011 -2 -31 52 c-108 190 -168 488 -141 702 37
289 149 514 357 718 252 247 599 367 948 328z m1113 -1910 c100 -45 94 -193
-11 -235 -33 -13 -186 -15 -1207 -15 -803 0 -1177 3 -1197 11 -67 25 -101 92
-82 161 10 38 55 81 94 91 11 2 547 5 1190 6 1139 1 1171 0 1213 -19z m-198
-933 c0 -238 -4 -438 -8 -445 -5 -6 -163 -79 -353 -161 -189 -82 -486 -211
-659 -286 -173 -76 -448 -195 -610 -265 -162 -70 -320 -139 -350 -153 -44 -20
-56 -23 -63 -12 -4 8 -6 208 -5 446 l3 432 195 83 c107 47 215 94 240 105 25
12 146 65 270 119 124 54 351 153 505 220 154 67 381 166 505 220 124 54 245
107 270 118 24 11 48 18 52 16 4 -3 8 -200 8 -437z m-5 -2018 l0 -384 -40 -19
c-22 -10 -146 -65 -275 -121 -129 -57 -361 -158 -515 -225 -154 -68 -381 -166
-505 -220 -124 -54 -254 -111 -290 -127 -118 -55 -399 -173 -409 -173 -8 0
-11 119 -11 385 l0 385 38 19 c20 10 114 51 207 91 94 40 199 86 235 103 36
16 166 73 290 127 236 103 585 255 1005 439 138 60 255 108 260 107 6 -2 10
-139 10 -387z m5 -1927 c0 -196 -4 -363 -8 -370 -5 -7 -112 -57 -238 -111
-126 -55 -280 -122 -343 -150 l-114 -51 -671 2 -671 3 -3 70 c-1 39 1 75 5 81
5 6 85 44 178 84 94 40 199 86 235 103 36 16 166 73 290 127 124 54 351 153
505 220 154 67 381 166 505 220 124 54 245 107 270 118 24 11 48 18 52 16 4
-3 8 -166 8 -362z m163 -883 c50 -13 83 -38 97 -74 23 -61 4 -126 -47 -161
-27 -18 -68 -19 -1193 -22 -641 -2 -1184 0 -1208 3 -56 8 -107 53 -115 99 -12
77 27 138 98 155 59 13 2315 14 2368 0z m-193 -347 c0 -5 -21 -27 -47 -48
-179 -148 -382 -232 -683 -285 -100 -18 -430 -18 -540 0 -76 12 -213 44 -295
70 -79 24 -232 98 -300 144 -50 34 -135 109 -135 118 0 5 432 9 1000 9 550 0
1000 -4 1000 -8z m-845 -422 c4 -6 1 -33 -5 -60 -36 -150 -249 -152 -289 -3
-20 72 -17 73 144 73 90 0 146 -4 150 -10z"/>
<path d="M2225 14606 c-115 -42 -189 -82 -296 -162 -227 -169 -394 -460 -431
-754 -13 -107 -4 -293 20 -385 18 -65 37 -115 47 -115 2 0 24 31 49 69 52 78
101 126 172 167 51 30 167 64 222 64 36 0 38 5 18 57 -56 147 -69 421 -27 568
51 176 118 284 279 448 88 89 83 92 -53 43z"/>
<path d="M27339 14885 c-304 -44 -540 -159 -746 -364 -185 -184 -290 -378
-355 -656 -30 -129 -30 -380 0 -515 22 -104 61 -219 99 -293 13 -26 21 -52 18
-57 -4 -6 -21 -10 -38 -10 -50 0 -132 -60 -162 -120 -68 -134 13 -304 157
-328 l43 -8 3 -2651 2 -2651 -32 -7 c-118 -26 -198 -119 -198 -230 0 -110 72
-199 183 -226 43 -10 66 -25 132 -86 44 -41 112 -95 150 -120 116 -78 333
-166 470 -193 33 -6 89 -17 124 -23 l65 -13 14 -63 c12 -54 22 -71 65 -116 58
-59 98 -75 188 -75 116 0 220 89 235 201 4 27 10 51 14 54 4 2 40 9 81 16 270
41 539 170 729 350 49 46 63 53 125 66 88 19 142 54 173 114 31 61 38 117 21
175 -26 87 -103 153 -196 169 l-43 7 0 2644 c0 2603 0 2643 19 2654 11 5 29
10 41 10 28 0 90 32 122 64 87 88 87 235 0 318 -48 46 -85 64 -150 73 -62 8
-62 -5 -2 140 79 191 108 399 84 602 -31 265 -103 447 -257 651 -166 219 -373
363 -642 447 -192 60 -360 76 -536 50z m311 -100 c137 -18 204 -37 320 -88
347 -152 596 -454 686 -832 26 -110 31 -350 9 -460 -28 -141 -53 -216 -116
-339 l-36 -71 -1010 -3 c-801 -2 -1013 1 -1021 10 -49 62 -116 231 -148 378
-26 118 -26 374 -1 480 90 373 316 656 652 820 207 101 434 137 665 105z
m1103 -1918 c84 -64 64 -188 -36 -226 -20 -8 -394 -11 -1197 -11 -1049 0
-1174 2 -1210 16 -104 42 -108 188 -7 235 41 18 80 19 1228 16 l1186 -2 36
-28z m-223 -924 l0 -448 -128 -54 c-70 -30 -158 -69 -197 -86 -38 -18 -177
-78 -307 -134 -130 -56 -265 -114 -300 -130 -35 -16 -193 -86 -353 -154 -159
-69 -319 -138 -355 -155 -54 -25 -242 -105 -368 -159 l-32 -13 2 446 3 446
100 45 c55 24 199 87 320 139 121 53 249 109 283 125 35 16 154 68 265 115
111 48 235 102 276 121 40 18 162 71 270 118 108 46 266 116 351 154 85 38
158 70 163 70 4 1 7 -200 7 -446z m0 -2012 l0 -388 -142 -63 c-79 -35 -244
-107 -368 -160 -124 -54 -251 -110 -283 -124 -32 -15 -161 -72 -287 -126 -531
-231 -689 -299 -752 -329 -100 -45 -186 -81 -198 -81 -16 0 -14 766 3 777 15
10 182 84 472 209 121 53 249 109 283 125 35 16 154 68 265 115 111 48 235
102 276 121 40 18 162 71 270 118 108 46 250 109 316 139 66 30 126 55 133 55
9 1 12 -83 12 -388z m0 -1933 l0 -373 -103 -44 c-56 -25 -214 -93 -351 -153
l-250 -108 -668 0 -669 0 3 81 3 81 100 45 c55 24 199 87 320 139 121 53 245
107 275 121 30 14 138 61 240 105 101 43 198 85 215 93 16 7 61 27 98 44 38
17 157 69 265 116 109 46 267 116 352 154 85 38 158 70 163 70 4 1 7 -167 7
-371z m204 -888 c47 -24 70 -63 70 -120 0 -41 -5 -55 -29 -80 -16 -17 -46 -35
-66 -40 -25 -7 -450 -9 -1216 -8 -1138 3 -1179 4 -1206 22 -70 48 -78 159 -13
206 52 39 56 39 1261 37 1018 -2 1174 -4 1199 -17z m-224 -334 c0 -12 -82 -81
-143 -123 -64 -43 -233 -124 -302 -145 -90 -27 -220 -58 -290 -69 -106 -18
-447 -18 -545 0 -303 53 -565 166 -695 300 l-39 41 1007 0 c554 0 1007 -2
1007 -4z m-850 -451 c0 -49 -31 -106 -70 -129 -44 -25 -124 -25 -159 1 -42 32
-71 82 -71 124 l0 39 150 0 150 0 0 -35z"/>
<path d="M27326 14619 c-384 -124 -670 -452 -753 -864 -21 -105 -21 -305 1
-405 18 -81 45 -160 55 -160 3 0 21 25 40 55 92 146 250 243 399 245 37 0 38
6 17 77 -48 161 -60 365 -31 502 38 172 129 333 274 479 45 46 82 86 82 88 0
7 -24 2 -84 -17z"/>
<path d="M13562 14246 c-40 -46 -58 -125 -43 -184 7 -23 13 -42 15 -42 2 0 25
12 52 27 84 47 209 35 293 -29 32 -24 36 -23 60 15 l20 32 -42 43 c-53 55
-152 134 -194 156 -18 9 -54 16 -81 16 -44 0 -53 -4 -80 -34z"/>
<path d="M16275 14263 c-36 -19 -98 -68 -176 -141 -61 -56 -62 -58 -26 -106
14 -20 15 -20 43 -1 65 44 108 57 186 58 67 1 81 -3 117 -26 22 -15 42 -27 45
-27 9 0 26 65 26 99 0 42 -29 110 -59 140 -26 26 -111 28 -156 4z"/>
<path d="M13147 14106 c-35 -67 -82 -116 -136 -143 l-40 -20 40 -18 c48 -22
100 -77 133 -143 26 -52 43 -62 106 -62 64 0 77 8 91 57 7 25 32 72 56 104
l43 59 -44 65 c-24 36 -49 85 -56 110 l-13 45 -76 0 -76 0 -28 -54z"/>
<path d="M16673 14143 c-22 -63 -57 -130 -84 -164 l-31 -39 36 -42 c30 -35 76
-130 76 -157 0 -17 110 -28 145 -15 9 4 27 28 40 55 35 68 78 114 132 140 l45
22 -30 13 c-49 20 -118 90 -147 149 l-26 55 -75 0 c-62 0 -76 -3 -81 -17z"/>
<path d="M13986 13989 c-32 -38 -32 -40 -2 -69 l25 -23 41 30 41 30 -36 32
c-20 17 -37 31 -39 31 -3 0 -16 -14 -30 -31z"/>
<path d="M15950 13990 l-35 -30 35 -30 c42 -36 47 -36 71 -7 25 30 24 39 -9
70 l-28 27 -34 -30z"/>
<path d="M13614 13991 c-48 -29 -48 -38 -3 -71 51 -36 95 -39 173 -10 81 31
85 42 27 73 -61 34 -149 37 -197 8z"/>
<path d="M16198 13990 c-65 -35 -59 -51 34 -85 62 -22 126 -14 168 22 25 21
28 28 19 40 -39 46 -154 58 -221 23z"/>
<path d="M14585 13978 c-389 -15 -390 -22 -5 -38 423 -18 416 -18 840 0 394
16 386 22 -50 39 -315 12 -459 12 -785 -1z"/>
<path d="M13842 13868 c-88 -50 -196 -51 -267 -2 -44 30 -50 25 -60 -48 -15
-105 47 -218 118 -218 47 1 106 32 157 83 92 91 160 166 160 175 0 12 -34 42
-46 41 -5 -1 -33 -15 -62 -31z"/>
<path d="M16064 13875 c-16 -24 -15 -25 87 -129 141 -145 206 -174 275 -121
54 41 80 156 53 234 -6 17 -13 31 -15 31 -2 0 -20 -11 -40 -25 -70 -48 -169
-47 -266 4 -33 17 -65 31 -69 31 -5 0 -16 -11 -25 -25z"/>
<path d="M12615 13159 c-202 -23 -396 -122 -495 -253 -162 -215 -136 -488 64
-679 54 -52 189 -137 217 -137 9 0 22 -7 29 -15 10 -13 9 -15 -11 -15 -13 0
-56 -9 -95 -19 -330 -88 -552 -290 -635 -576 -30 -105 -32 -296 -5 -395 85
-298 332 -528 654 -609 309 -78 636 -50 885 75 228 114 371 283 440 519 28 97
29 292 2 385 -52 179 -183 317 -345 360 l-45 12 65 32 c94 47 139 77 193 130
92 89 128 220 93 340 -19 66 -4 65 -163 4 -57 -22 -103 -43 -103 -47 0 -5 9
-16 20 -26 46 -41 56 -152 21 -231 -43 -97 -114 -146 -256 -178 -202 -46 -322
-94 -417 -167 -65 -49 -131 -132 -160 -198 -49 -115 -39 -309 23 -443 l12 -28
148 0 148 0 -47 48 c-221 223 -115 597 195 687 110 32 221 24 320 -21 111 -51
196 -152 235 -278 29 -94 31 -278 3 -376 -36 -127 -82 -209 -159 -285 -292
-286 -917 -268 -1225 37 -123 120 -181 263 -181 441 0 375 256 742 546 782 27
4 57 9 67 12 29 8 19 39 -24 68 -58 41 -133 126 -180 205 -136 229 -130 479
16 647 43 51 139 106 214 123 151 35 310 -44 355 -177 22 -65 21 -186 -4 -265
-32 -104 -108 -213 -193 -275 -27 -20 -45 -39 -40 -44 10 -10 249 -79 274 -79
33 0 152 123 186 192 125 257 24 525 -247 656 -104 50 -269 76 -395 61z"/>
<path d="M4970 13066 c0 -8 7 -89 16 -179 13 -139 14 -317 11 -1178 -3 -720
-7 -1037 -16 -1094 -6 -44 -13 -87 -14 -95 -2 -13 29 -15 220 -18 l221 -2 -5
42 c-3 24 -9 68 -15 98 -5 30 -12 297 -15 592 -4 495 -4 538 12 544 9 4 170 1
358 -7 188 -7 467 -13 619 -13 l278 -1 0 -500 c0 -455 -5 -587 -26 -712 l-7
-43 223 0 223 0 -7 68 c-4 37 -11 112 -16 167 -12 130 -12 1981 0 2105 5 52
12 128 16 168 l7 72 -219 -2 -219 -3 1 -25 c1 -14 6 -72 13 -129 7 -64 11
-297 11 -614 l0 -510 -227 6 c-126 4 -372 12 -548 18 -176 6 -360 8 -408 4
l-89 -7 5 534 c4 396 9 556 20 623 8 50 13 93 10 98 -2 4 -101 7 -219 7 -180
0 -214 -2 -214 -14z"/>
<path d="M14550 13053 c0 -15 7 -77 15 -138 22 -164 22 -2075 0 -2250 -8 -66
-15 -130 -15 -143 l0 -23 728 3 c707 3 729 4 803 25 280 79 453 229 530 458
21 62 18 266 -5 335 -60 180 -176 301 -358 373 -79 32 -192 57 -256 57 -63 0
-45 12 63 45 400 120 565 303 565 625 0 328 -186 546 -539 633 -83 20 -115 21
-808 24 l-723 4 0 -28z m1260 -57 c36 -10 103 -35 149 -58 191 -92 282 -254
282 -507 1 -289 -105 -437 -416 -578 -425 -193 -522 -258 -589 -392 -36 -70
-32 -82 8 -30 151 199 484 274 722 164 305 -140 360 -522 112 -769 -123 -122
-285 -195 -548 -247 -139 -27 -564 -40 -571 -18 -2 8 -3 564 -1 1237 l4 1223
391 -4 c327 -3 403 -7 457 -21z"/>
<path d="M19995 13067 c-3 -7 0 -35 7 -62 8 -36 12 -348 15 -1135 4 -1020 0
-1230 -24 -1342 l-5 -28 176 0 176 0 0 498 c0 555 -1 542 74 689 55 107 78
140 147 209 115 118 233 171 359 162 226 -16 373 -266 387 -658 12 -329 -62
-592 -207 -741 -73 -75 -133 -101 -231 -103 -73 -1 -79 1 -131 37 -30 20 -70
56 -88 79 -43 53 -94 159 -110 226 -15 64 -22 60 -68 -40 l-30 -67 29 -45 c17
-25 56 -69 87 -98 239 -221 598 -190 845 72 163 172 234 376 224 637 -7 168
-29 261 -93 392 -63 127 -173 241 -284 294 -237 113 -525 81 -720 -78 -57 -47
-146 -148 -155 -177 -3 -9 -13 -19 -21 -22 -14 -6 -15 49 -11 546 4 399 10
581 20 653 8 55 12 103 10 108 -2 4 -87 7 -189 7 -139 0 -186 -3 -189 -13z"/>
<path d="M9032 12480 c-94 -22 -141 -141 -91 -229 33 -58 65 -76 134 -76 73 0
118 27 146 89 24 53 24 80 -2 132 -32 68 -110 102 -187 84z"/>
<path d="M7750 12095 c-108 -14 -182 -28 -289 -56 -115 -29 -255 -81 -265 -97
-6 -10 62 -153 78 -164 6 -4 31 9 56 28 66 50 200 131 266 160 148 65 250 88
394 88 158 1 249 -29 338 -109 74 -66 105 -137 106 -240 1 -95 -18 -138 -86
-201 -92 -85 -199 -118 -448 -139 -182 -15 -281 -29 -340 -46 -151 -45 -266
-132 -332 -253 -32 -59 -33 -65 -33 -176 0 -101 3 -120 23 -158 96 -181 372
-272 640 -212 93 20 210 66 274 106 20 13 40 24 43 24 2 0 43 27 89 60 47 33
89 60 93 60 5 0 18 -61 28 -135 l19 -135 173 0 c95 0 173 2 173 5 0 3 -11 47
-24 98 -23 88 -36 165 -74 417 l-17 114 -61 -74 c-79 -97 -211 -223 -297 -284
-81 -58 -200 -118 -281 -141 -88 -26 -235 -23 -310 5 -79 30 -148 98 -164 162
-36 143 16 291 133 378 122 92 252 132 545 170 287 37 406 75 485 156 95 97
100 263 13 392 -48 69 -157 137 -273 169 -151 41 -471 54 -675 28z"/>
<path d="M8883 12088 c28 -118 32 -207 32 -773 0 -563 -5 -683 -32 -792 l-5
-23 197 0 198 0 -8 53 c-4 28 -11 81 -16 117 -11 85 -11 1185 0 1270 5 36 12
89 16 118 l8 52 -198 0 -197 0 5 -22z"/>
<path d="M9419 12105 c-3 -3 1 -53 10 -112 12 -86 15 -225 15 -673 1 -535 -4
-658 -30 -792 l-6 -28 197 0 197 0 -6 33 c-19 102 -26 285 -26 744 l0 513 110
55 c158 79 264 121 355 140 173 36 339 -16 475 -151 31 -30 59 -54 62 -54 7 0
88 156 88 169 0 13 -128 101 -186 128 -108 49 -242 41 -434 -26 -102 -35 -287
-114 -387 -165 -40 -20 -75 -36 -77 -36 -3 0 -7 57 -8 128 l-3 127 -171 3
c-93 1 -173 0 -175 -3z"/>
<path d="M17319 12095 c-186 -23 -549 -126 -549 -156 0 -5 18 -45 40 -90 29
-56 44 -77 53 -72 7 4 46 31 87 59 265 180 522 254 737 210 103 -21 158 -45
217 -97 51 -45 82 -97 102 -174 28 -103 6 -184 -69 -260 -95 -94 -196 -127
-461 -150 -271 -23 -345 -38 -456 -94 -164 -81 -251 -212 -252 -377 -1 -114
22 -173 92 -244 152 -152 434 -192 690 -99 87 32 218 105 305 169 92 69 87 72
105 -62 6 -46 13 -100 16 -120 l6 -38 175 0 175 0 -6 23 c-25 82 -56 229 -70
327 -35 237 -39 261 -46 265 -4 3 -34 -27 -66 -66 -161 -197 -387 -362 -566
-414 -81 -23 -227 -22 -303 1 -46 14 -73 31 -112 70 -63 62 -78 107 -70 214
12 169 112 280 317 353 106 37 188 55 399 83 101 13 202 29 225 35 148 38 230
92 279 184 31 60 29 193 -5 267 -84 182 -324 270 -727 267 -86 -1 -204 -7
-262 -14z"/>
<path d="M18467 12103 c-3 -5 -1 -33 3 -63 43 -284 39 -1337 -6 -1515 l-6 -25
196 0 196 0 -5 38 c-3 20 -10 73 -16 117 -7 46 -13 304 -16 601 -4 427 -2 522
9 531 7 6 65 37 128 67 63 31 126 63 140 70 14 8 66 27 115 42 211 66 414 17
556 -133 28 -29 54 -53 58 -53 4 0 26 37 49 83 l42 82 -48 43 c-26 24 -79 59
-119 79 -117 58 -222 57 -418 -4 -91 -28 -302 -116 -417 -174 -43 -22 -82 -39
-88 -39 -6 0 -10 48 -10 130 l0 130 -169 0 c-94 0 -172 -3 -174 -7z"/>
<path d="M22404 12095 c-150 -32 -270 -95 -402 -210 -59 -50 -167 -220 -196
-305 -145 -430 66 -875 490 -1033 369 -138 822 43 1003 400 25 48 71 172 71
189 0 2 -11 4 -24 4 -20 0 -26 -9 -45 -67 -73 -224 -294 -382 -533 -383 -326
-1 -620 246 -749 630 -26 78 -33 115 -37 212 -6 153 1 171 38 95 52 -102 102
-170 194 -262 159 -158 316 -242 504 -272 120 -19 231 -6 340 39 177 74 266
248 228 447 -23 122 -66 201 -161 297 -114 115 -244 185 -405 219 -86 18 -233
18 -316 0z m119 -90 c186 -33 361 -164 426 -318 75 -181 14 -355 -147 -416
-67 -26 -194 -28 -273 -5 -234 69 -423 246 -494 462 -21 66 -16 87 36 146 68
77 149 119 264 135 86 12 101 12 188 -4z"/>
<path d="M23507 12103 c-3 -5 -1 -33 3 -63 43 -284 39 -1337 -6 -1515 l-6 -25
196 0 196 0 -5 38 c-3 20 -10 73 -16 117 -7 46 -13 304 -16 601 -4 427 -2 522
9 531 7 6 65 37 128 67 63 31 126 63 140 70 14 8 66 27 115 42 211 66 414 17
556 -133 28 -29 54 -53 58 -53 4 0 26 37 49 83 l42 82 -48 43 c-72 66 -176
114 -262 120 -145 10 -349 -53 -673 -210 -54 -27 -102 -48 -108 -48 -5 0 -9
56 -9 130 l0 130 -169 0 c-94 0 -172 -3 -174 -7z"/>
<path d="M14790 9949 c-143 -124 -413 -258 -683 -340 -81 -25 -107 -37 -105
-49 2 -10 15 -15 39 -16 70 -2 89 -12 109 -57 35 -79 39 -186 42 -1042 3 -796
2 -843 -16 -905 -33 -116 -97 -190 -164 -190 -27 0 -70 -30 -43 -30 6 0 248
-1 539 -1 425 0 527 3 527 13 0 7 -11 14 -25 16 -80 9 -141 72 -177 182 -16
51 -18 121 -21 940 -3 890 2 1116 33 1364 11 88 12 123 4 133 -15 18 -19 17
-59 -18z"/>
<path d="M5775 9910 c-82 -4 -277 -8 -432 -9 -178 -1 -283 -5 -283 -11 0 -5
12 -12 28 -15 78 -16 106 -29 142 -65 48 -48 72 -94 96 -185 18 -66 19 -122
19 -1020 0 -889 -1 -954 -18 -1014 -41 -144 -100 -214 -203 -241 -32 -8 -57
-19 -56 -23 3 -11 1211 -11 1215 0 1 4 -19 13 -46 20 -119 29 -184 112 -218
278 -20 100 -21 2164 -1 2211 19 44 49 54 157 54 294 0 462 -122 531 -385 27
-106 25 -378 -5 -498 -43 -180 -129 -297 -263 -361 -83 -39 -193 -66 -267 -66
-39 0 -51 -4 -51 -15 0 -12 14 -15 63 -15 35 0 70 -6 79 -12 9 -7 56 -92 104
-188 344 -691 681 -1011 1268 -1201 133 -44 203 -58 192 -41 -3 5 -44 35 -90
66 -280 186 -524 642 -696 1298 -21 80 -22 80 -216 66 -101 -7 -201 -8 -249
-3 l-80 8 150 22 c159 24 226 39 348 80 319 107 494 338 474 624 -28 384 -276
580 -807 636 -150 16 -592 18 -885 5z"/>
<path d="M19435 9874 c-134 -31 -220 -81 -272 -158 -93 -136 -56 -282 87 -345
170 -75 418 -29 534 100 124 136 92 301 -74 377 -45 21 -72 26 -155 28 -55 2
-109 1 -120 -2z"/>
<path d="M18386 9625 c-50 -106 -101 -178 -198 -276 -130 -132 -282 -229 -446
-284 -119 -39 -128 -59 -31 -63 113 -5 103 63 109 -721 6 -755 3 -720 78 -837
82 -127 188 -185 337 -185 132 0 239 43 383 151 81 61 258 240 283 286 22 42
2 38 -68 -15 -197 -148 -345 -115 -397 90 -14 57 -16 139 -16 621 0 666 -13
608 136 608 73 0 94 3 94 14 0 10 -23 15 -96 18 -88 4 -98 6 -117 29 -17 21
-19 34 -13 114 14 215 19 525 8 525 -6 0 -27 -34 -46 -75z"/>
<path d="M15957 9114 c-69 -45 -256 -134 -379 -180 -139 -52 -244 -84 -406
-124 -59 -15 -49 -31 21 -35 163 -10 187 -90 187 -635 0 -305 6 -366 46 -485
65 -194 195 -322 382 -376 93 -27 290 -27 383 0 92 26 169 66 228 118 71 62
114 128 163 253 9 23 12 17 32 -55 49 -181 140 -277 303 -319 116 -30 211 -16
322 49 182 107 327 385 337 645 5 129 -13 106 -26 -35 -21 -207 -93 -315 -213
-315 -58 0 -100 38 -117 107 -29 118 -21 912 14 1270 12 124 11 143 -5 143 -5
0 -37 -17 -71 -38 -190 -114 -457 -216 -765 -292 -24 -6 -43 -14 -43 -19 0 -5
27 -11 60 -14 129 -11 167 -66 182 -265 5 -70 8 -257 5 -417 -5 -260 -7 -298
-27 -363 -56 -189 -167 -292 -316 -292 -130 0 -206 77 -250 250 -17 69 -19
116 -18 555 1 367 5 520 17 651 26 266 26 265 -46 218z"/>
<path d="M19799 9116 c-156 -103 -457 -225 -709 -286 -125 -30 -142 -45 -61
-53 108 -9 156 -54 177 -164 19 -99 19 -883 0 -1011 -24 -157 -89 -252 -172
-252 -29 0 -73 -30 -45 -30 6 0 247 0 536 0 289 0 530 0 536 0 24 0 -14 30
-38 30 -51 0 -114 52 -144 119 -48 109 -51 160 -46 778 3 318 9 614 15 658 6
44 12 114 14 155 4 86 -5 94 -63 56z"/>
<path d="M23172 9086 c-169 -98 -429 -199 -656 -255 -61 -15 -111 -32 -113
-38 -2 -6 20 -13 51 -16 110 -11 152 -50 177 -162 20 -87 20 -1024 0 -1110
-27 -119 -62 -155 -153 -155 -43 0 -78 -13 -66 -25 8 -8 1069 -8 1077 0 10 10
-23 25 -57 25 -47 0 -106 34 -131 74 -43 69 -51 158 -51 587 0 351 2 410 19
496 25 128 53 200 105 270 53 72 110 103 189 103 133 0 169 -47 232 -305 238
-975 235 -967 286 -1070 101 -209 265 -290 454 -225 250 86 413 345 432 684 5
100 4 118 -8 114 -10 -3 -16 -33 -22 -104 -12 -159 -61 -298 -119 -339 -13 -8
-41 -15 -63 -15 -44 0 -83 28 -109 78 -8 15 -69 248 -135 517 -67 270 -136
526 -153 570 -83 214 -240 315 -488 315 -227 0 -419 -103 -540 -291 -22 -35
-43 -73 -46 -86 -6 -23 -24 -32 -24 -13 0 6 7 99 16 206 15 187 14 224 -3 224
-4 -1 -50 -25 -101 -54z"/>
<path d="M8615 9090 c-135 -13 -221 -38 -360 -107 -328 -161 -535 -488 -535
-845 0 -254 83 -455 260 -628 170 -166 388 -251 649 -251 229 0 422 60 619
193 106 71 234 208 196 208 -3 0 -20 -11 -36 -26 -99 -83 -243 -112 -399 -79
-244 52 -502 271 -658 558 -17 31 -27 58 -22 61 7 5 276 15 854 33 137 4 220
10 226 17 21 27 43 162 44 263 1 174 -48 298 -160 409 -145 145 -407 220 -678
194z m-89 -89 c114 -52 247 -239 324 -456 28 -76 33 -105 34 -187 1 -81 -2
-100 -17 -115 -15 -16 -50 -19 -280 -29 -144 -6 -267 -9 -273 -7 -26 9 -83
186 -105 326 -14 91 -7 231 15 303 28 91 86 148 176 171 63 16 79 15 126 -6z"/>
<path d="M12725 9090 c-372 -28 -703 -237 -853 -536 -96 -191 -121 -447 -65
-659 52 -198 198 -391 378 -500 246 -148 626 -180 950 -80 75 23 243 108 305
155 210 157 332 351 375 597 19 108 19 186 0 293 -19 110 -39 168 -89 265
-166 323 -546 500 -1001 465z m-65 -106 c111 -52 278 -263 411 -519 191 -370
285 -760 225 -934 -38 -109 -145 -181 -270 -181 -105 0 -227 103 -364 309
-264 395 -430 913 -368 1148 43 162 218 246 366 177z"/>
<path d="M21150 9090 c-101 -8 -164 -22 -284 -62 -248 -82 -455 -256 -564
-474 -97 -192 -122 -446 -65 -659 52 -198 198 -391 378 -500 246 -148 626
-180 950 -80 75 23 243 108 305 155 210 157 332 351 375 597 19 108 19 186 0
293 -19 110 -39 168 -89 265 -119 232 -354 394 -651 449 -102 19 -246 25 -355
16z m-60 -106 c204 -95 516 -632 619 -1064 61 -256 47 -395 -48 -490 -85 -84
-213 -104 -311 -48 -270 153 -639 907 -640 1303 0 167 70 276 198 311 73 20
121 16 182 -12z"/>
<path d="M9584 9031 c-8 -8 19 -31 38 -31 78 0 155 -111 271 -390 19 -47 69
-166 110 -265 42 -99 116 -279 167 -400 50 -121 95 -229 100 -240 5 -11 39
-92 75 -180 37 -88 73 -174 81 -192 8 -17 14 -35 14 -40 0 -15 47 -36 67 -30
20 6 92 33 338 125 179 67 181 68 146 146 -31 67 -26 103 30 239 27 67 68 165
89 217 21 52 62 151 90 220 29 69 72 175 97 235 24 61 51 124 59 142 8 17 14
34 14 39 0 4 30 68 66 142 71 144 128 216 181 227 34 7 54 17 56 28 3 11 -517
13 -523 1 -6 -10 28 -21 91 -29 61 -8 115 -52 130 -108 25 -94 -11 -230 -141
-522 -5 -11 -29 -69 -54 -130 -24 -60 -74 -182 -111 -270 -36 -88 -73 -178
-82 -200 -36 -86 -58 -85 -95 6 -15 35 -50 120 -78 189 -28 69 -55 134 -60
145 -5 11 -32 76 -60 145 -28 69 -55 134 -60 145 -24 53 -85 207 -107 270 -28
83 -33 197 -10 242 28 54 75 83 151 92 32 4 51 11 51 19 0 10 -111 13 -563 15
-310 1 -566 0 -568 -2z"/>
<path d="M18803 9023 c-7 -2 -13 -9 -13 -15 0 -14 43 -6 48 10 4 12 -12 15
-35 5z"/>
<path d="M13604 6740 c-29 -12 -70 -63 -84 -106 -13 -39 -9 -129 7 -145 6 -6
27 0 59 18 84 48 190 36 296 -33 26 -17 27 -17 47 7 11 13 20 31 21 39 0 20
-165 166 -228 202 -48 28 -81 33 -118 18z"/>
<path d="M16285 6728 c-46 -24 -153 -109 -209 -166 l-38 -40 21 -31 c12 -17
24 -31 27 -31 2 0 22 11 44 25 55 35 152 58 206 50 23 -3 59 -17 79 -31 20
-13 40 -24 44 -24 5 0 14 20 21 45 22 79 -18 178 -86 210 -42 20 -61 19 -109
-7z"/>
<path d="M13149 6574 c-27 -59 -91 -129 -144 -157 l-40 -20 30 -8 c44 -12 106
-69 135 -125 42 -82 45 -84 120 -84 l67 0 18 48 c22 59 51 109 83 144 l24 26
-41 55 c-23 30 -50 79 -61 108 l-18 54 -77 3 -76 3 -20 -47z"/>
<path d="M16676 6611 c-4 -5 -13 -28 -21 -51 -14 -39 -64 -120 -93 -149 -11
-11 -8 -18 19 -45 29 -27 47 -61 87 -159 12 -27 14 -28 83 -25 l71 3 26 50
c34 65 111 142 153 152 l33 9 -56 31 c-57 33 -83 61 -129 142 l-25 46 -71 3
c-40 2 -74 -2 -77 -7z"/>
<path d="M12420 6486 c-58 -27 -97 -37 -172 -45 -67 -8 -1199 -11 -3658 -11
l-3561 0 3 -27 3 -28 3640 -5 c3356 -5 3643 -6 3680 -22 22 -9 69 -28 104 -43
92 -39 181 -33 284 18 39 21 83 46 97 58 l25 21 -34 29 c-70 58 -137 82 -241
86 -91 4 -98 2 -170 -31z"/>
<path d="M17300 6506 c-75 -29 -86 -35 -125 -70 l-40 -36 28 -23 c16 -13 49
-35 75 -49 118 -63 220 -63 353 -2 l84 39 3643 3 3642 2 0 30 0 30 -3554 0
c-2385 0 -3587 3 -3655 10 -79 8 -116 18 -169 43 -57 27 -80 32 -157 34 -58 2
-102 -2 -125 -11z"/>
<path d="M13981 6448 c-23 -29 -23 -32 -8 -57 21 -35 36 -36 77 -1 l35 29 -35
30 c-19 17 -37 30 -40 30 -3 0 -16 -14 -29 -31z"/>
<path d="M15945 6447 l-37 -33 35 -27 c44 -33 57 -33 80 -1 18 25 18 25 -8 59
-14 19 -28 35 -29 35 -2 0 -20 -15 -41 -33z"/>
<path d="M13625 6456 c-43 -19 -61 -42 -45 -60 22 -28 97 -49 145 -43 54 8
128 43 123 60 -2 7 -24 22 -49 34 -50 25 -128 29 -174 9z"/>
<path d="M16192 6444 c-29 -14 -49 -30 -46 -35 7 -13 73 -45 108 -53 72 -17
194 35 165 71 -40 48 -149 56 -227 17z"/>
<path d="M14541 6434 c-134 -7 -251 -15 -260 -17 -9 -2 47 -7 124 -11 315 -17
602 -22 809 -15 289 10 518 21 513 25 -1 2 -134 10 -295 19 -342 18 -554 17
-891 -1z"/>
<path d="M13840 6327 c-49 -28 -63 -31 -136 -32 -79 0 -116 10 -155 43 -15 11
-18 9 -28 -19 -26 -76 -6 -176 46 -231 33 -34 86 -37 141 -9 20 11 84 67 141
124 l103 104 -17 27 c-22 33 -27 32 -95 -7z"/>
<path d="M16067 6342 c-10 -10 -17 -22 -17 -26 0 -16 168 -189 215 -221 95
-66 176 -36 210 77 18 61 18 63 4 127 l-11 51 -46 -28 c-41 -24 -57 -27 -127
-26 -78 0 -162 26 -180 54 -10 15 -30 12 -48 -8z"/>
</g>
</svg>
